<svg xmlns="http://www.w3.org/2000/svg" width="18" height="18" viewBox="0 0 16 16">
  <!-- Menu Bar Icon: Hexagon with exclamation mark -->
  <!-- Hexagon outline (same as original) -->
  <path fill="currentColor" fill-rule="evenodd" d="M7.223.183a1.75 1.75 0 0 1 1.518 0l4.996 2.406c.48.231.829.668.947 1.187l1.234 5.407a1.75 1.75 0 0 1-.338 1.48l-3.233 4.054a.75.75 0 1 1-1.173-.935l3.233-4.054a.25.25 0 0 0 .049-.212L13.222 4.11a.25.25 0 0 0-.136-.17L8.09 1.536a.25.25 0 0 0-.217 0L2.878 3.94a.25.25 0 0 0-.136.17L1.508 9.515a.25.25 0 0 0 .049.212l3.233 4.054a.75.75 0 1 1-1.173.935L.384 10.663a1.75 1.75 0 0 1-.338-1.48L1.28 3.776a1.75 1.75 0 0 1 .947-1.187z" clip-rule="evenodd"/>
  <!-- Exclamation mark: vertical bar -->
  <rect fill="currentColor" x="7" y="4" width="2" height="6" rx="1"/>
  <!-- Exclamation mark: dot -->
  <circle fill="currentColor" cx="8" cy="12" r="1"/>
</svg>
